{"title":"MasterChef.Australia.S05E64.H264.VKU","uid":8868992,"size":372581984,"categoryP":"video","categoryS":"tv_shows","magnet":"?xt=urn:btih:bce5242d8ef453b0dfe59dd426edcd0c6a6df514&amp;dn=MasterChef.Australia.S05E64.H264.VKU&amp;tr=udp%3A%2F%2Ftracker.openbittorrent.com%3A80&amp;tr=udp%3A%2F%2Fopen.demonii.com%3A1337&amp;tr=udp%3A%2F%2Ftracker.coppersurfer.tk%3A6969&amp;tr=udp%3A%2F%2Fexodus.desync.com%3A6969","seeders":0,"leechers":1,"uploader":"kurd_Viva","files":1,"time":1378004489,"description":"\n\nCompressed with (Advanced video compresser) Format : H264\n\n\n\ndetails:\n\n      File size : 355 MiB\n      Duration : 45mn 53s\n      Overall bit rate mode : Variable\n      Overall bit rate : 1 083 Kbps\n\n   Video #1\n      ID : 1\n      Format : AVC\n      Format/Info : Advanced Video Codec\n      Format profile : &lt;a class=&quot;__cf_email__&quot; href=&quot;/cdn-cgi/l/email-protection&quot; data-cfemail=&quot;d890b1bfb09894ebf6e8&quot;&gt;[email&amp;#160;protected]&lt;/a&gt;&lt;script cf-hash='f9e31' type=&quot;text/javascript&quot;&gt;\n/* &lt;![CDATA[ */!function(){try{var t=&quot;currentScript&quot;in document?document.currentScript:function(){for(var t=document.getElementsByTagName(&quot;script&quot;),e=t.length;e--;)if(t[e].getAttribute(&quot;cf-hash&quot;))return t[e]}();if(t&amp;&amp;t.previousSibling){var e,r,n,i,c=t.previousSibling,a=c.getAttribute(&quot;data-cfemail&quot;);if(a){for(e=&quot;&quot;,r=parseInt(a.substr(0,2),16),n=2;a.length-n;n+=2)i=parseInt(a.substr(n,2),16)^r,e+=String.fromCharCode(i);e=document.createTextNode(e),c.parentNode.replaceChild(e,c)}}}catch(u){}}();/* ]]&gt; */&lt;/script&gt;\n      Format settings, CABAC : Yes\n      Format settings, ReFrames : 3 frames\n      Codec ID : avc1\n      Codec ID/Info : Advanced Video Coding\n      Duration : 45mn 53s\n      Bit rate : 976 Kbps\n      Width : 640 pixels\n      Height : 352 pixels\n      Display aspect ratio : 16:9\n      Frame rate mode : Constant\n      Frame rate : 25.000 fps\n      Color space : YUV\n      Chroma subsampling : 4:2:0\n      Bit depth : 8 bits\n      Scan type : Progressive\n      Bits/(Pixel*Frame) : 0.173\n      Stream size : 323 MiB (91%)\n      Writing library : x264 core 112\n\n   Audio #2\n      Format : AAC\n      Format/Info : Advanced Audio Codec\n      Duration : 45mn 53s\n      Bit rate mode : Variable\n      Bit rate : 93.4 Kbps\n      Channel(s) : 2 channels\n      Channel positions : Front: L R\n      Sampling rate : 48.0 KHz\n      Compression mode : Lossy\n      Delay relative to video : 40ms\n      Stream size : 30.7 MiB (9%)\n\nscreen shots:\n &lt;a href=&quot;\nhttp://s9.postimg.org/l8nw4mybz/image.png&quot; rel=&quot;nofollow&quot; target=&quot;_NEW&quot;&gt;\nhttp://s9.postimg.org/l8nw4mybz/image.png&lt;/a&gt; &lt;a href=&quot;\nhttp://s9.postimg.org/xys4hq6a7/image.png&quot; rel=&quot;nofollow&quot; target=&quot;_NEW&quot;&gt;\nhttp://s9.postimg.org/xys4hq6a7/image.png&lt;/a&gt; &lt;a href=&quot;\nhttp://s9.postimg.org/xxi6ob4gf/image.png&quot; rel=&quot;nofollow&quot; target=&quot;_NEW&quot;&gt;\nhttp://s9.postimg.org/xxi6ob4gf/image.png&lt;/a&gt;","torrent":{"xt":"urn:btih:bce5242d8ef453b0dfe59dd426edcd0c6a6df514","amp;dn":"MasterChef.Australia.S05E64.H264.VKU","amp;tr":["udp%3A%2F%2Ftracker.openbittorrent.com%3A80","udp%3A%2F%2Fopen.demonii.com%3A1337","udp%3A%2F%2Ftracker.coppersurfer.tk%3A6969","udp%3A%2F%2Fexodus.desync.com%3A6969"],"infoHash":"bce5242d8ef453b0dfe59dd426edcd0c6a6df514","infoHashBuffer":{"type":"Buffer","data":[188,229,36,45,142,244,83,176,223,229,157,212,38,237,205,12,106,109,245,20]},"announce":[],"urlList":[]}}